<svg id="Groupe_1286" data-name="Groupe 1286" xmlns="http://www.w3.org/2000/svg" xmlns:xlink="http://www.w3.org/1999/xlink" width="196.181" height="98.308" viewBox="0 0 196.181 98.308">
  <defs>
    <clipPath id="clip-path">
      <rect id="Rectangle_729" data-name="Rectangle 729" width="196.181" height="98.308" fill="none"/>
    </clipPath>
  </defs>
  <g id="Groupe_1285" data-name="Groupe 1285" clip-path="url(#clip-path)">
    <path id="Tracé_386" data-name="Tracé 386" d="M195.308,90.119,167.036,46.973,137.824,2.39a5.29,5.29,0,0,0-8.848,0L99.763,46.973,84.883,69.681a2.484,2.484,0,0,1-4.156,0L73.49,58.637,51.921,25.718a5.29,5.29,0,0,0-8.848,0L21.5,58.637.874,90.119A5.289,5.289,0,0,0,5.3,98.308H190.884a5.289,5.289,0,0,0,4.424-8.188" transform="translate(0 0)" fill="#4379e0"/>
  </g>
</svg>
