<svg id="Groupe_1282" data-name="Groupe 1282" xmlns="http://www.w3.org/2000/svg" xmlns:xlink="http://www.w3.org/1999/xlink" width="180.001" height="132.447" viewBox="0 0 180.001 132.447">
  <defs>
    <clipPath id="clip-path">
      <rect id="Rectangle_726" data-name="Rectangle 726" width="180.001" height="132.447" fill="none"/>
    </clipPath>
  </defs>
  <g id="Groupe_1277" data-name="Groupe 1277" transform="translate(0 0)" clip-path="url(#clip-path)">
    <path id="Tracé_378" data-name="Tracé 378" d="M10.147,51.468c13.711-1.495,30.1-4,38.189-6.029,6.111-1.53,33.223-8.169,39.4-25.326A51.807,51.807,0,0,1,97.781,3.63c1.341-1.41,3.486-3.437,6.432-3.618,2.551-.157,4.833,1.126,6.834,2.814,30.791,25.982,38.04,55.246,38.04,55.246,1.894,7.644,5.6,26.323-1.056,46.056-1.265,3.754-4.7,13.923-9.648,14.07-3.8.113-6.024-5.787-10.05-12.06-.66-1.03-12.586-18.631-31.355-26.531-1.086-.457-14.4-5.91-29.37-4.823-4.09.3-10.5.554-23.322,1.071a43.2,43.2,0,0,1-5.112-.09s-2.245-.166-4.505-.58C15.359,71.651-1.435,59.037.1,54.282c.619-1.922,4.105-2.166,10.05-2.814" transform="translate(0 0)" fill="#4379e0"/>
    <path id="Tracé_379" data-name="Tracé 379" d="M23.235,68.3c-.522.951,12.6,6.668,26.372,18.417,5.046,4.3,18.21,16.068,29.344,26.732,1.767,1.693,5.5,5.286,11.256,6.433,6.989,1.391,13.329-1.672,14.874-2.412a34.4,34.4,0,0,0,7.245-4.954,64.864,64.864,0,0,0,7.814-7.49,2.679,2.679,0,0,0,.331-3.077A65.123,65.123,0,0,0,109.546,87.5,58.625,58.625,0,0,0,93.332,75.7c-17.053-8.113-36.709-5.389-41.916-4.669-4.213.584-10.112,1.777-17.889.2-6.113-1.238-10-3.473-10.292-2.94" transform="translate(4.157 12.211)" fill="#4379e0"/>
    <path id="Tracé_380" data-name="Tracé 380" d="M127.259,37.4a27.171,27.171,0,0,0,10.25,5.627c5.189,1.468,7.881.381,13.059,2.83,2.426,1.148,5.074,2.445,6.238,5.211.828,1.968.325,4.26-.717,8.762-1.214,5.245-1.822,7.869-3.3,9.729-1.912,2.4-3.663,2.649-9.1,5.5a97.92,97.92,0,0,0-9.595,5.758A68.268,68.268,0,0,0,127.259,37.4" transform="translate(22.781 6.696)" fill="#4379e0"/>
  </g>
</svg>
