<svg id="Groupe_1284" data-name="Groupe 1284" xmlns="http://www.w3.org/2000/svg" xmlns:xlink="http://www.w3.org/1999/xlink" width="197.247" height="146.029" viewBox="0 0 197.247 146.029">
  <defs>
    <clipPath id="clip-path">
      <rect id="Rectangle_728" data-name="Rectangle 728" width="197.247" height="146.029" fill="none"/>
    </clipPath>
  </defs>
  <g id="Groupe_1283" data-name="Groupe 1283" clip-path="url(#clip-path)">
    <path id="Tracé_385" data-name="Tracé 385" d="M196.223,26.711,138.376.159a1.751,1.751,0,0,0-.733-.16H115.771a1.743,1.743,0,0,0-1.745,1.584c-1.072,13.15-15.5,12.78-15.5,12.78s-14.425.37-15.5-12.78A1.743,1.743,0,0,0,81.284,0H58.619a1.769,1.769,0,0,0-.741.164L1.015,26.615a1.756,1.756,0,0,0-.666,2.642L31.1,70.471a1.755,1.755,0,0,0,2.49.332L46.67,60.537a1.756,1.756,0,0,1,2.8,1.742l-17.13,81.634a1.755,1.755,0,0,0,1.718,2.116H163a1.755,1.755,0,0,0,1.718-2.116L147.4,61.4a1.755,1.755,0,0,1,2.593-1.882l20.076,11.538a1.756,1.756,0,0,0,2.383-.624L197,29.2a1.755,1.755,0,0,0-.776-2.493" transform="translate(0 0)" fill="#4379e0"/>
  </g>
</svg>
