<svg id="eyes" xmlns="http://www.w3.org/2000/svg" viewBox="0 0 634.89 160.98"><defs><style>.cls-1{fill:#4379e0;}</style></defs><path class="cls-1" d="M203.1,67.27l-103.81-56a46.42,46.42,0,0,0-31-4.67l-30.82,6A46.47,46.47,0,0,0,0,58.19V66.5a76.31,76.31,0,0,0,66.06,75.65l137.45,18.62a19.12,19.12,0,0,0,2.92.21A22.13,22.13,0,0,0,225,150.82,59,59,0,0,0,203.1,67.27ZM117,123.89A37.06,37.06,0,1,1,137.6,56a18.53,18.53,0,0,0,3.8,36.67,18.32,18.32,0,0,0,12.67-5.08A37,37,0,0,1,117,123.89Z"/><path class="cls-1" d="M597.34,12.6l-30.77-6a46.39,46.39,0,0,0-31,4.67l-103.85,56a59,59,0,0,0-21.8,83.55A22,22,0,0,0,428.4,161a19.25,19.25,0,0,0,2.93-.21l137.45-18.62A76.36,76.36,0,0,0,634.89,66.5V58.19A46.52,46.52,0,0,0,597.34,12.6ZM517.8,123.89a37.06,37.06,0,0,1,0-74.11,33.64,33.64,0,0,1,6.87.67,18.51,18.51,0,1,0,27.8,23.44,35.88,35.88,0,0,1,2.36,12.92A37.05,37.05,0,0,1,517.8,123.89Z"/></svg>