<svg xmlns="http://www.w3.org/2000/svg"
    xmlns:xlink="http://www.w3.org/1999/xlink" width="97.825" height="78" viewBox="0 0 97.825 78">
    <path id="Tracé_382" data-name="Tracé 382" d="M103.93,8.9,100.9,44.329A70.208,70.208,0,0,1,72.255,50.51a70.16,70.16,0,0,1-27.05-5.386L42.1,8.9C42.1,3.988,55.943,0,73.017,0S103.93,3.988,103.93,8.9" transform="translate(-24.482)" fill="#4379e0"/>
    <path id="Tracé_383" data-name="Tracé 383" d="M96.471,120.536c-5.21,14.228-30.708,19.924-47.56,20.166-16.852-.243-42.35-5.938-47.56-20.166-.3-.812-2.745-7.495-.222-10.847a4.368,4.368,0,0,1,.41-.473c1.586-1.565,4.03-1.523,7.231-1.235a89.212,89.212,0,0,1,12.127,1.95h0l.962,11.253q.22.113.452.226a55.783,55.783,0,0,0,24.8,6.055h.071c.381.008.766.017,1.155.017A59.757,59.757,0,0,0,75.171,121.2l.029-.013.95-11.073a90.279,90.279,0,0,1,12.9-2.13c3.2-.289,5.649-.331,7.231,1.235a4.23,4.23,0,0,1,.423.485c2.507,3.356.063,10.023-.234,10.834" transform="translate(0 -62.703)" fill="#4379e0"/>
</svg>