<svg xmlns="http://www.w3.org/2000/svg" xmlns:xlink="http://www.w3.org/1999/xlink" width="213.822" height="203.677" viewBox="0 0 213.822 203.677">
  <defs>
    <clipPath id="clip-path">
      <rect id="Rectangle_735" data-name="Rectangle 735" width="213.822" height="203.677" fill="none"/>
    </clipPath>
  </defs>
  <g id="Groupe_1293" data-name="Groupe 1293" clip-path="url(#clip-path)">
    <path id="Tracé_393" data-name="Tracé 393" d="M213.822,203.523c-4.248-12.28-8.582-22.544-12.289-30.577-4.557-9.869-8.4-16.889-10.9-21.437-3.244-5.887-4.866-8.831-6.737-11.336-3.167-4.239-5.321-5.981-7.535-10.461-.609-1.236-1.038-2.317-2.78-8.264-2.841-9.749-4.265-14.623-5.115-19.755a88.734,88.734,0,0,1-1.244-11.551c-.3-7.337.626-7.312.953-18.511.2-6.822-.069-9.689.669-16.185.481-4.3.729-4.171.79-5.981a18.573,18.573,0,0,0-1.15-7.1,3.371,3.371,0,0,1-.6.335,6.507,6.507,0,0,0-1.5-2.78,5.809,5.809,0,0,0-2.489-1.648c-.523-.137-2.06-.421-6.145,2.6-2.54,1.879-4.025,3.536-7.569,6.145A6.2,6.2,0,0,1,147,48.408c-.721.06-1.09-.069-3.441-.7-3.287-.884-3.845-.97-3.982-1.433-.292-.953,1.613-2.3,2.377-2.849,0,0,4.317-3.1,10.023-8.118a26.518,26.518,0,0,0,6.951-9.037c-4.205-5.87-8.058-10.513-14.306-14.992A62.014,62.014,0,0,0,110.138.015h2.54c-7.6-.163-21.995.781-34.919,10.238a50.2,50.2,0,0,0-5.75,4.917c.7.747,1.467,1.5,2.308,2.257C78.6,21.272,82.05,22.542,89.1,25.761c0,0,10.684,4.892,23.119,11.705,5.527,3.029,9.955,5.767,12.89,7.638a.5.5,0,0,1-.12.893,21.754,21.754,0,0,1-10.281.832c-1.536-.257-3.27-.738-8.487-3.364-9.534-4.8-9.346-6.016-14.34-7.749-4.128-1.442-10.2-3.544-13.6-.884-1.038.815-2.317,2.454-4.686,2.78a6.37,6.37,0,0,1-2.926-.292c-2.454-.807-4.1-2.969-5.853-6.436-.541-1.081-1.141-2.386-1.742-3.922a72.022,72.022,0,0,0-8.934,37.425c.094,1.708.369,4.651.584,9.878.421,10.392.712,17.653-.626,26.758a93.7,93.7,0,0,1-4.068,16.606c-1.982,6-3.029,9.062-5.509,12.083-2.506,3.055-4.231,3.57-7.715,7.758a47.1,47.1,0,0,0-4.977,7.312C25.35,156.066,23,157.73,15.653,170.895A292.14,292.14,0,0,0,0,203.677q10.375-.013,20.759-.017C26.149,181.167,47.7,146.025,47.7,146.025c-4.394,11.414-8.2,57.618-8.2,57.618l-.009.009q75.935-.064,151.871-.112s-5.887-48.041-10.247-59.257c3.278,6.805,14.846,32.267,18.125,59.248q7.286,0,14.58-.009M97.145,52.613c-2.06.978-4.059.489-7.9-.292-5.9-1.21-6.3-1.09-7.681-1.888A8.323,8.323,0,0,1,77.5,46.271c-.5-1.313-.918-3.707.335-4.926a2.926,2.926,0,0,1,1.751-.729c4.617-.575,9.654,1.459,9.654,1.459,2.643,1.064,5.544,2.274,7.827,5.123.738.91,2.12,2.669,1.536,4.093a2.569,2.569,0,0,1-1.459,1.322M138.784,88.09a21.623,21.623,0,0,1-2.549,2.437,11,11,0,0,1-2.36,1.613,7.981,7.981,0,0,1-4.849.79,7.359,7.359,0,0,1-3.664-2.094c-3.63-3.476-7.921-7.312-9.569-8.719-4.488-3.827-8.762-5.69-8.59-6,.094-.172,1.356.558,3.355.961a15.575,15.575,0,0,0,5.827-.069c1.7-.232,8.1-1.124,13.662,1.519a19.229,19.229,0,0,1,5.278,3.845,21.083,21.083,0,0,1,3.561,4.711.884.884,0,0,1-.1,1m7.732-4.274c-.412,1.227-1.536,4.54-3.149,4.583-1.236.043-1.957-1.879-3.27-3.93-.215-.335-4.1-6.067-10.221-8.642a22.807,22.807,0,0,0-9.569-1.57c-1.33.094-3.424.18-7.6.343a12.626,12.626,0,0,1-1.665-.026s-.729-.051-1.467-.189c-6.29-1.15-11.766-5.261-11.268-6.814.206-.626,1.339-.7,3.278-.918a112.691,112.691,0,0,0,12.444-1.965c1.991-.5,10.83-2.66,12.838-8.247a16.818,16.818,0,0,1,3.278-5.372,3.264,3.264,0,0,1,2.094-1.184,3.205,3.205,0,0,1,2.223.918c10.041,8.47,12.4,18,12.4,18a27.28,27.28,0,0,1-.343,15.009m10.049-12.255a8.119,8.119,0,0,1-1.081,3.175c-.618.781-1.193.858-2.961,1.785A31.345,31.345,0,0,0,149.4,78.4a22.234,22.234,0,0,0-2.231-14.151,8.9,8.9,0,0,0,3.338,1.837c1.691.481,2.575.129,4.257.927A3.593,3.593,0,0,1,156.8,68.7c.275.644.1,1.39-.232,2.858m7.878-19.094a4.675,4.675,0,0,1-1.27,2.008,13.4,13.4,0,0,1-3.767.875,13.7,13.7,0,0,1-6.445-1.056,3.464,3.464,0,0,1-1.1-1.682,3.614,3.614,0,0,1,.069-2.12c.283-.91.815-1.493,3.072-3.3,3.149-2.506,3.827-2.712,4.463-2.78a3.933,3.933,0,0,1,2.712.515c.8.549,1.107,1.51,1.7,3.416.6,1.974.9,2.978.566,4.119" transform="translate(0 0)" fill="#4379e0"/>
  </g>
</svg>
