<svg xmlns="http://www.w3.org/2000/svg" xmlns:xlink="http://www.w3.org/1999/xlink" width="143.693" height="178.586" viewBox="0 0 143.693 178.586">
  <defs>
    <clipPath id="clip-path">
      <rect id="Rectangle_734" data-name="Rectangle 734" width="143.693" height="178.586" fill="none"/>
    </clipPath>
  </defs>
  <g id="Groupe_1291" data-name="Groupe 1291" clip-path="url(#clip-path)">
    <path id="Tracé_392" data-name="Tracé 392" d="M105.957.477a4.57,4.57,0,0,0-6.482,4.984l.019.1a40.313,40.313,0,0,1,.732,7.155,37.785,37.785,0,0,1-.164,4.031c-.936,10.6-6,19.725-13.241,24.967a1.8,1.8,0,0,1-2.843-1.472V35.118a1.8,1.8,0,0,0-1.8-1.8H61.016a1.8,1.8,0,0,0-1.8,1.8v4.743a1.8,1.8,0,0,1-2.871,1.45c-6.959-5.3-11.8-14.228-12.715-24.569a37.784,37.784,0,0,1-.164-4.031A40.209,40.209,0,0,1,44.2,5.557l.019-.1A4.57,4.57,0,0,0,37.738.477C15.464,11.493.284,32.632,0,57.06c-.251,21.278,10.847,40.318,28.258,52.5a74.512,74.512,0,0,0,9.5,5.65,4.538,4.538,0,0,0,6.474-4.974c-.011-.061-.023-.122-.035-.184a38.77,38.77,0,0,1-.732-8.04c.011-1.049.066-2.1.164-3.124a37.618,37.618,0,0,1,.907-5.615c2.008-8.494,6.739-15.6,12.962-19.9a1.1,1.1,0,0,1,1.717.906v59.7a1.766,1.766,0,0,0,1.765,1.765,1.764,1.764,0,0,1,1.765,1.765v20.055a12.333,12.333,0,0,0-3.527,8.9,12.38,12.38,0,0,0,24.756-.257,12.328,12.328,0,0,0-3.531-8.648V137.5a1.765,1.765,0,0,1,1.766-1.765,1.766,1.766,0,0,0,1.765-1.765V73.949a1.1,1.1,0,0,1,1.7-.919c6.471,4.262,11.407,11.519,13.477,20.24a37.616,37.616,0,0,1,.907,5.615c.1,1.027.152,2.075.164,3.124a38.77,38.77,0,0,1-.732,8.04c-.011.061-.023.121-.035.182a4.538,4.538,0,0,0,6.474,4.974,74.429,74.429,0,0,0,9.5-5.648c17.412-12.179,28.509-31.219,28.258-52.5-.28-24.428-15.46-45.566-37.732-56.582" transform="translate(0 0)" fill="#4379e0"/>
  </g>
</svg>
