<svg xmlns="http://www.w3.org/2000/svg" viewBox="0 0 27.935 20.681">
    <path id="Tracé_385" data-name="Tracé 385" d="M27.789,3.782,19.6.022a.248.248,0,0,0-.1-.023H16.4a.247.247,0,0,0-.247.224c-.152,1.862-2.195,1.81-2.195,1.81s-2.043.052-2.195-1.81A.247.247,0,0,0,11.511,0H8.3a.251.251,0,0,0-.1.023L.143,3.768a.249.249,0,0,0-.094.374L4.4,9.979a.249.249,0,0,0,.353.047L6.609,8.573a.249.249,0,0,1,.4.247L4.58,20.381a.249.249,0,0,0,.243.3H23.084a.249.249,0,0,0,.243-.3L20.875,8.694a.249.249,0,0,1,.367-.267l2.843,1.634a.249.249,0,0,0,.337-.088L27.9,4.135a.249.249,0,0,0-.11-.353" transform="translate(0 0.001)" fill="#4379e0"/>
</svg>
