<svg xmlns="http://www.w3.org/2000/svg" viewBox="0 0 30.06 23.968">
    <path d="M61.1,2.735l-.932,10.886a21.573,21.573,0,0,1-8.8,1.9,21.559,21.559,0,0,1-8.312-1.655L42.1,2.735C42.1,1.225,46.354,0,51.6,0s9.5,1.225,9.5,2.735" transform="translate(-36.686)" fill="#4379e0"/>
    <path d="M29.643,111.731c-1.6,4.372-9.436,6.122-14.614,6.2-5.178-.075-13.013-1.825-14.614-6.2-.091-.249-.844-2.3-.068-3.333a1.342,1.342,0,0,1,.126-.145c.487-.481,1.238-.468,2.222-.379a27.413,27.413,0,0,1,3.727.6h0l.3,3.458.139.069a17.141,17.141,0,0,0,7.62,1.861H14.5c.117,0,.235.005.355.005a18.362,18.362,0,0,0,8.244-1.931l.009,0,.292-3.4a27.74,27.74,0,0,1,3.964-.655c.984-.089,1.736-.1,2.222.379a1.3,1.3,0,0,1,.13.149c.77,1.031.019,3.08-.072,3.329" transform="translate(0 -93.96)" fill="#4379e0"/>
</svg>
