<svg xmlns="http://www.w3.org/2000/svg" viewBox="0 0 37.898 36.099">
    <path id="Tracé_393" data-name="Tracé 393" d="M37.9,36.072c-.753-2.177-1.521-4-2.178-5.419-.808-1.749-1.489-2.993-1.932-3.8a18.013,18.013,0,0,0-1.194-2.009,10.776,10.776,0,0,1-1.335-1.854,8.691,8.691,0,0,1-.493-1.465,30.906,30.906,0,0,1-.907-3.5,15.727,15.727,0,0,1-.221-2.047c-.053-1.3.111-1.3.169-3.281a28.011,28.011,0,0,1,.119-2.869c.085-.762.129-.739.14-1.06a3.292,3.292,0,0,0-.2-1.258.6.6,0,0,1-.106.059,1.153,1.153,0,0,0-.266-.493,1.03,1.03,0,0,0-.441-.292c-.093-.024-.365-.075-1.089.461-.45.333-.713.627-1.342,1.089a1.1,1.1,0,0,1-.564.246,1.81,1.81,0,0,1-.61-.123c-.583-.157-.681-.172-.706-.254-.052-.169.286-.408.421-.5,0,0,.765-.549,1.777-1.439a4.7,4.7,0,0,0,1.232-1.6A10.487,10.487,0,0,0,25.632,2a10.991,10.991,0,0,0-6.111-2h.45a10.123,10.123,0,0,0-6.189,1.815,8.9,8.9,0,0,0-1.019.872c.125.132.26.266.409.4a8.923,8.923,0,0,0,2.619,1.477s1.894.867,4.1,2.075c.98.537,1.764,1.022,2.285,1.354a.088.088,0,0,1-.021.158A3.856,3.856,0,0,1,20.33,8.3a5.136,5.136,0,0,1-1.5-.6A27.411,27.411,0,0,0,16.284,6.33c-.732-.256-1.807-.628-2.411-.157a1.609,1.609,0,0,1-.83.493,1.129,1.129,0,0,1-.519-.052c-.435-.143-.727-.526-1.037-1.141-.1-.192-.2-.423-.309-.7a12.765,12.765,0,0,0-1.583,6.633c.017.3.065.824.1,1.751A23.689,23.689,0,0,1,9.587,17.9a16.608,16.608,0,0,1-.721,2.943,6.106,6.106,0,0,1-.976,2.142c-.444.541-.75.633-1.367,1.375a8.347,8.347,0,0,0-.882,1.3c-1.147,2-1.564,2.3-2.866,4.628A51.779,51.779,0,0,0,0,36.1l3.679,0c.955-3.987,4.774-10.215,4.774-10.215C7.675,27.9,7,36.093,7,36.093l0,0q13.459-.011,26.917-.02s-1.043-8.515-1.816-10.5a36.55,36.55,0,0,1,3.212,10.5l2.584,0M17.218,9.325c-.365.173-.719.087-1.4-.052-1.046-.214-1.116-.193-1.361-.335a1.475,1.475,0,0,1-.719-.738c-.088-.233-.163-.657.059-.873a.519.519,0,0,1,.31-.129,4,4,0,0,1,1.711.259,3.1,3.1,0,0,1,1.387.908c.131.161.376.473.272.726a.455.455,0,0,1-.259.234m7.38,6.288a3.832,3.832,0,0,1-.452.432,1.95,1.95,0,0,1-.418.286,1.415,1.415,0,0,1-.859.14,1.3,1.3,0,0,1-.649-.371c-.643-.616-1.4-1.3-1.7-1.545-.8-.678-1.553-1.008-1.523-1.063.017-.03.24.1.595.17a2.76,2.76,0,0,0,1.033-.012,4.446,4.446,0,0,1,2.421.269,3.408,3.408,0,0,1,.935.681,3.737,3.737,0,0,1,.631.835.157.157,0,0,1-.018.178m1.37-.757c-.073.218-.272.8-.558.812-.219.008-.347-.333-.58-.7a4.562,4.562,0,0,0-1.812-1.532,4.042,4.042,0,0,0-1.7-.278c-.236.017-.607.032-1.348.061a2.238,2.238,0,0,1-.3,0s-.129-.009-.26-.033c-1.115-.2-2.085-.932-2-1.208.037-.111.237-.125.581-.163a19.973,19.973,0,0,0,2.205-.348c.353-.088,1.92-.472,2.275-1.462a2.981,2.981,0,0,1,.581-.952.578.578,0,0,1,.371-.21A.568.568,0,0,1,23.831,9a6.778,6.778,0,0,1,2.2,3.191,4.835,4.835,0,0,1-.061,2.66m1.781-2.172a1.439,1.439,0,0,1-.192.563c-.11.138-.211.152-.525.316a5.556,5.556,0,0,0-.554.333,3.941,3.941,0,0,0-.4-2.508,1.577,1.577,0,0,0,.592.325,3.6,3.6,0,0,1,.754.164.637.637,0,0,1,.36.3c.049.114.018.246-.041.506m1.4-3.384a.829.829,0,0,1-.225.356,2.376,2.376,0,0,1-.668.155,2.429,2.429,0,0,1-1.142-.187.614.614,0,0,1-.195-.3.641.641,0,0,1,.012-.376c.05-.161.144-.265.545-.584.558-.444.678-.481.791-.493a.7.7,0,0,1,.481.091c.141.1.2.268.3.605a1.248,1.248,0,0,1,.1.73" transform="translate(0 0)" fill="#4379e0"/>
</svg>
