<?xml version="1.0" encoding="UTF-8"?>
<svg xmlns="http://www.w3.org/2000/svg" width="208.523" height="156.233" viewBox="0 0 208.523 156.233">
    <g id="Groupe_1155" data-name="Groupe 1155" transform="translate(-0.001)">
        <path id="Tracé_366" data-name="Tracé 366" d="M207.806,116.9,190.614,55.884V45.08C190.605,45.071,160.069,0,104.329,0,76.46,0,54.893,11.27,40.286,22.536S18.049,45.076,18.044,45.08v10.8L.718,117.384a19.083,19.083,0,0,0,9.638,22.149c13.9,7.144,35.233,16.7,49.3,16.7,21.82,0,21.612-6.584,21.612-6.584s-1.721-15.852-52.7-61.757c-9.676-9.672-7.2-22.024-2.056-31.492s14.82-23.672,14.82-23.672,33.348-8.44,52.493,26.14c0,0,.163-.086.453-.258.059-.032.122-.072.19-.113.032-.018.063-.036.1-.059.068-.045.145-.091.226-.14.2-.127.426-.272.675-.439q.183-.122.38-.258c.068-.045.131-.1.2-.145.136-.1.276-.2.421-.3a0,0,0,0,0,0,0c.14-.1.29-.213.439-.326a0,0,0,0,1,0,0c.149-.118.3-.235.457-.358.077-.063.158-.127.24-.195.154-.127.312-.263.475-.4.081-.068.163-.14.245-.213.163-.145.326-.29.489-.439,2.7-2.5,5.492-6.19,5.492-10.754,0,8.852,10.5,14.408,10.5,14.408,19.14-34.58,52.488-26.14,52.488-26.14s9.676,14.2,14.825,23.672,7.616,21.82-2.06,31.492c-50.976,45.9-52.7,61.757-52.7,61.757s-.2,6.584,21.612,6.584c13.814,0,35.346-9.947,49.287-17.246a19.087,19.087,0,0,0,9.52-22.088" fill="#284a8b"/>
        <path id="Tracé_367" data-name="Tracé 367" d="M222.044,178.631a90.3,90.3,0,0,1-11.625-7.281,1.756,1.756,0,0,1-.2-.167l-9.108-8.687a1.7,1.7,0,0,0-2.349,0l-9.2,8.778a36.065,36.065,0,0,1-11.336,7.32,1.7,1.7,0,0,0-.209,3.041,63.532,63.532,0,0,0,21.7,7.649,1.679,1.679,0,0,0,.442.012,50.633,50.633,0,0,0,22.071-7.69,1.7,1.7,0,0,0-.18-2.974" transform="translate(-96.943 -88.661)" fill="#284a8b"/>
        <path id="Tracé_368" data-name="Tracé 368" d="M220.937,218.215q-.462.195-.938.384a48.462,48.462,0,0,1-13.555,3.226,1.672,1.672,0,0,1-.372-.007,55.9,55.9,0,0,1-12.01-2.91q-1.535-.558-2.945-1.166a1.7,1.7,0,0,0-1.9,2.738l15.822,16.312a1.7,1.7,0,0,0,2.443,0l15.354-15.83a1.7,1.7,0,0,0-1.9-2.747" transform="translate(-103.268 -119.067)" fill="#284a8b"/>
        <path id="Tracé_369" data-name="Tracé 369" d="M301.476,140.845a50.513,50.513,0,0,0,8.181-5.421q2.642-2.112,5.1-4.411,2.457,2.3,5.1,4.416a49.943,49.943,0,0,0,8.185,5.416.48.48,0,0,0,.641-.641,64.678,64.678,0,0,0-9.812-13.3q2.289-2.448,4.4-5.077a49.934,49.934,0,0,0,5.416-8.185.48.48,0,0,0-.64-.641,64.631,64.631,0,0,0-13.283,9.8,65.38,65.38,0,0,0-13.279-9.8.479.479,0,0,0-.64.641,50.505,50.505,0,0,0,5.42,8.18q2.1,2.633,4.4,5.081a65.394,65.394,0,0,0-9.816,13.3.479.479,0,0,0,.64.64" transform="translate(-164.588 -61.805)" fill="#284a8b"/>
        <path id="Tracé_370" data-name="Tracé 370" d="M132.98,113.643a.48.48,0,0,0-.64-.641,64.667,64.667,0,0,0-13.283,9.8,65.363,65.363,0,0,0-13.279-9.8.48.48,0,0,0-.641.64,50.514,50.514,0,0,0,5.421,8.181q2.1,2.633,4.4,5.08a65.413,65.413,0,0,0-9.816,13.3.479.479,0,0,0,.641.64,50.479,50.479,0,0,0,8.18-5.42q2.643-2.112,5.1-4.411,2.457,2.3,5.1,4.416a49.894,49.894,0,0,0,8.185,5.416.48.48,0,0,0,.64-.64,64.635,64.635,0,0,0-9.812-13.3q2.29-2.447,4.4-5.077a49.943,49.943,0,0,0,5.416-8.185" transform="translate(-57.501 -61.805)" fill="#284a8b"/>
    </g>
</svg>