<svg width="83" height="83" viewBox="0 0 83 83" fill="none" xmlns="http://www.w3.org/2000/svg">
<g clip-path="url(#clip0_1_2)">
<path d="M2.5 41.501C2.5 33.7875 4.78731 26.2473 9.07269 19.8338C13.3581 13.4202 19.449 8.42151 26.5753 5.46969C33.7017 2.51787 41.5433 1.74554 49.1085 3.25037C56.6738 4.75519 63.6229 8.46958 69.0772 13.9238C74.5314 19.3781 78.2458 26.3272 79.7506 33.8925C81.2554 41.4577 80.4831 49.2993 77.5313 56.4256C74.5795 63.552 69.5808 69.6429 63.1672 73.9283C56.7537 78.2137 49.2135 80.501 41.5 80.501C31.1566 80.501 21.2368 76.3921 13.9228 69.0782C6.60892 61.7642 2.5 51.8444 2.5 41.501" fill="white"/>
<path d="M2.5 41.501C2.5 33.7875 4.78731 26.2473 9.07269 19.8338C13.3581 13.4202 19.449 8.42151 26.5753 5.46969C33.7017 2.51787 41.5433 1.74554 49.1085 3.25037C56.6738 4.75519 63.6229 8.46958 69.0772 13.9238C74.5314 19.3781 78.2458 26.3272 79.7506 33.8925C81.2554 41.4577 80.4831 49.2993 77.5313 56.4256C74.5795 63.552 69.5808 69.6429 63.1672 73.9283C56.7537 78.2137 49.2135 80.501 41.5 80.501C31.1566 80.501 21.2368 76.3921 13.9228 69.0782C6.60892 61.7642 2.5 51.8444 2.5 41.501" stroke="#A0A0A0" stroke-width="5"/>
<path d="M41.536 54.16C40.5973 54.16 39.808 53.8613 39.168 53.264C38.5707 52.624 38.272 51.8347 38.272 50.896C38.272 49.232 38.6987 47.4187 39.552 45.456C40.4053 43.4507 41.728 41.68 43.52 40.144C44.7147 39.12 45.8027 38.1173 46.784 37.136C47.808 36.112 48.6187 34.96 49.216 33.68C49.856 32.3573 50.176 30.7573 50.176 28.88C50.176 27.5147 49.856 26.2347 49.216 25.04C48.576 23.8453 47.6587 22.8853 46.464 22.16C45.312 21.392 43.8827 21.008 42.176 21.008C40.0853 21.008 38.3573 21.392 36.992 22.16C35.6267 22.928 34.6027 23.9947 33.92 25.36C33.28 26.7253 32.96 28.3253 32.96 30.16C32.96 31.0987 32.6613 31.888 32.064 32.528C31.4667 33.1253 30.6773 33.424 29.696 33.424C28.7573 33.424 27.968 33.1253 27.328 32.528C26.7307 31.888 26.432 31.0987 26.432 30.16C26.432 27.1733 27.072 24.5493 28.352 22.288C29.6747 20.0267 31.5093 18.256 33.856 16.976C36.2453 15.6533 39.0187 14.992 42.176 14.992C44.9493 14.992 47.4027 15.5893 49.536 16.784C51.712 17.936 53.4187 19.5573 54.656 21.648C55.936 23.696 56.576 26.1067 56.576 28.88C56.576 31.2693 56.192 33.3387 55.424 35.088C54.656 36.8373 53.6107 38.416 52.288 39.824C50.9653 41.1893 49.4507 42.5547 47.744 43.92C46.6347 44.816 45.8667 45.9893 45.44 47.44C45.0133 48.848 44.8 50 44.8 50.896C44.8 51.8347 44.5013 52.624 43.904 53.264C43.3067 53.8613 42.5173 54.16 41.536 54.16ZM41.536 66C40.3413 66 39.296 65.5733 38.4 64.72C37.5467 63.824 37.12 62.7787 37.12 61.584C37.12 60.3467 37.5467 59.3013 38.4 58.448C39.296 57.552 40.3413 57.104 41.536 57.104C42.7733 57.104 43.8187 57.552 44.672 58.448C45.568 59.3013 46.016 60.3467 46.016 61.584C46.016 62.7787 45.568 63.824 44.672 64.72C43.8187 65.5733 42.7733 66 41.536 66Z" fill="#A0A0A0"/>
</g>
<defs>
<clipPath id="clip0_1_2">
<rect width="83" height="83" fill="white"/>
</clipPath>
</defs>
</svg>
