<svg xmlns="http://www.w3.org/2000/svg" viewBox="0 0 23.265 28.915">
    <path id="Tracé_392" data-name="Tracé 392" d="M17.155.077a.74.74,0,0,0-1.049.807l0,.015a6.527,6.527,0,0,1,.118,1.158,6.118,6.118,0,0,1-.027.653,5.568,5.568,0,0,1-2.144,4.042.292.292,0,0,1-.46-.238V5.686a.291.291,0,0,0-.291-.291H9.879a.291.291,0,0,0-.291.291v.768a.291.291,0,0,1-.465.235A5.6,5.6,0,0,1,7.064,2.711a6.118,6.118,0,0,1-.027-.653A6.51,6.51,0,0,1,7.156.9l0-.015A.74.74,0,0,0,6.11.077,10.479,10.479,0,0,0,0,9.238a10.26,10.26,0,0,0,4.575,8.5,12.065,12.065,0,0,0,1.538.915.735.735,0,0,0,1.048-.805l-.006-.03a6.277,6.277,0,0,1-.118-1.3c0-.17.011-.34.027-.506a6.091,6.091,0,0,1,.147-.909,5.4,5.4,0,0,1,2.1-3.222.178.178,0,0,1,.278.147v9.666a.286.286,0,0,0,.286.286.286.286,0,0,1,.286.286V25.51a2,2,0,0,0-.571,1.442,2,2,0,0,0,4.008-.042,2,2,0,0,0-.572-1.4V22.263a.286.286,0,0,1,.286-.286.286.286,0,0,0,.286-.286V11.973a.178.178,0,0,1,.275-.149A5.381,5.381,0,0,1,16.054,15.1a6.09,6.09,0,0,1,.147.909c.016.166.025.336.027.506a6.277,6.277,0,0,1-.118,1.3l-.006.03a.735.735,0,0,0,1.048.805,12.051,12.051,0,0,0,1.538-.915,10.26,10.26,0,0,0,4.575-8.5A10.479,10.479,0,0,0,17.155.077" fill="#4379e0"/>
</svg>
