<svg xmlns="http://www.w3.org/2000/svg" viewBox="0 0 29.456 21.675">
    <path id="Tracé_378" data-name="Tracé 378" d="M1.66,8.422a57.6,57.6,0,0,0,6.25-.987c1-.25,5.437-1.337,6.447-4.145A8.478,8.478,0,0,1,16,.593,1.646,1.646,0,0,1,17.054,0a1.613,1.613,0,0,1,1.118.461A19.21,19.21,0,0,1,24.4,9.5a13.712,13.712,0,0,1-.173,7.537c-.207.614-.769,2.278-1.579,2.3-.622.019-.986-.947-1.645-1.974a12.922,12.922,0,0,0-5.131-4.342,11.479,11.479,0,0,0-4.806-.789c-.669.048-1.718.091-3.817.175A7.069,7.069,0,0,1,6.41,12.4s-.367-.027-.737-.095C2.513,11.725-.235,9.66.015,8.882c.1-.314.672-.354,1.645-.461" transform="translate(0 0.001)" fill="#4379e0"/>
    <path id="Tracé_379" data-name="Tracé 379" d="M23.223,68.229c-.085.156,2.062,1.091,4.316,3.014.826.7,2.98,2.629,4.8,4.375a3.688,3.688,0,0,0,1.842,1.053,4,4,0,0,0,2.434-.395,5.629,5.629,0,0,0,1.186-.811,10.615,10.615,0,0,0,1.279-1.226.438.438,0,0,0,.054-.5,10.657,10.657,0,0,0-1.788-2.364,9.594,9.594,0,0,0-2.653-1.93,12.579,12.579,0,0,0-6.859-.764,7.836,7.836,0,0,1-2.927.033c-1-.2-1.636-.568-1.684-.481" transform="translate(-18.74 -55.054)" fill="#4379e0"/>
    <path id="Tracé_380" data-name="Tracé 380" d="M127.259,37.4a4.446,4.446,0,0,0,1.677.921,10.164,10.164,0,0,1,2.137.463,1.82,1.82,0,0,1,1.021.853c.135.322.053.7-.117,1.434a4.115,4.115,0,0,1-.541,1.592c-.313.393-.6.434-1.489.9a16.025,16.025,0,0,0-1.57.942,11.172,11.172,0,0,0-1.118-7.1" transform="translate(-102.706 -30.186)" fill="#4379e0"/>
</svg>
